<svg width="14" height="14" viewBox="0 0 14 14" fill="none" xmlns="http://www.w3.org/2000/svg">
<defs>
<linearGradient id="paint0_linear_377_1040" x1="7.0026" y1="0.333496" x2="7.0026" y2="13.6668" gradientUnits="userSpaceOnUse">
<stop stop-color="#A26AFA"/>
<stop offset="1" stop-color="#5108C7"/>
</linearGradient>
</defs>
<path d="M7.0026 13.6668C3.3206 13.6668 0.335938 10.6822 0.335938 7.00016C0.335938 3.31816 3.3206 0.333496 7.0026 0.333496C10.6846 0.333496 13.6693 3.31816 13.6693 7.00016C13.6693 10.6822 10.6846 13.6668 7.0026 13.6668ZM6.33594 9.00016V10.3335H7.66927V9.00016H6.33594ZM7.66927 7.9035C8.20505 7.74201 8.66501 7.39346 8.96537 6.92132C9.26574 6.44918 9.38654 5.88487 9.30576 5.33114C9.22498 4.77742 8.94801 4.27112 8.52528 3.90447C8.10255 3.53781 7.56219 3.33519 7.0026 3.3335C6.46317 3.33345 5.94038 3.52027 5.52313 3.86216C5.10588 4.20405 4.81994 4.67992 4.71394 5.20883L6.02194 5.47083C6.05906 5.28512 6.14815 5.11376 6.27885 4.97671C6.40955 4.83965 6.57648 4.74252 6.76022 4.69663C6.94396 4.65074 7.13696 4.65797 7.31675 4.71748C7.49654 4.77698 7.65574 4.88632 7.77583 5.03277C7.89591 5.17922 7.97193 5.35676 7.99506 5.54472C8.01818 5.73269 7.98746 5.92336 7.90645 6.09455C7.82545 6.26574 7.6975 6.4104 7.53749 6.51172C7.37748 6.61303 7.19199 6.66682 7.0026 6.66683C6.82579 6.66683 6.65622 6.73707 6.5312 6.86209C6.40618 6.98712 6.33594 7.15668 6.33594 7.3335V8.3335H7.66927V7.9035Z" fill="url(#paint0_linear_377_1040)"/>
</svg>
