<svg width="12" height="15" viewBox="0 0 12 15" fill="none" xmlns="http://www.w3.org/2000/svg">
<path d="M11.3307 14.6665H0.664062V13.3332C0.664062 12.4491 1.01525 11.6013 1.64037 10.9761C2.26549 10.351 3.11334 9.99984 3.9974 9.99984H7.9974C8.88145 9.99984 9.7293 10.351 10.3544 10.9761C10.9795 11.6013 11.3307 12.4491 11.3307 13.3332V14.6665ZM5.9974 8.6665C5.47211 8.6665 4.95196 8.56304 4.46666 8.36202C3.98136 8.161 3.5404 7.86637 3.16897 7.49493C2.79753 7.1235 2.5029 6.68254 2.30188 6.19724C2.10086 5.71194 1.9974 5.19179 1.9974 4.6665C1.9974 4.14122 2.10086 3.62107 2.30188 3.13577C2.5029 2.65047 2.79753 2.20951 3.16897 1.83808C3.5404 1.46664 3.98136 1.172 4.46666 0.970986C4.95196 0.769967 5.47211 0.666504 5.9974 0.666504C7.05826 0.666504 8.07568 1.08793 8.82582 1.83808C9.57597 2.58822 9.9974 3.60564 9.9974 4.6665C9.9974 5.72737 9.57597 6.74479 8.82582 7.49493C8.07568 8.24508 7.05826 8.6665 5.9974 8.6665Z" fill="#E0E0E0"/>
</svg>
