<svg width="12" height="16" viewBox="0 0 12 16" fill="none" xmlns="http://www.w3.org/2000/svg">
<path d="M6 0.666504L11.478 1.88384C11.626 1.91675 11.7584 1.99915 11.8533 2.11744C11.9482 2.23573 12 2.38285 12 2.5345V9.1925C12 9.85099 11.8373 10.4993 11.5266 11.0798C11.2158 11.6604 10.7666 12.1553 10.2187 12.5205L6 15.3332L1.78133 12.5205C1.23352 12.1553 0.784307 11.6606 0.473565 11.0801C0.162824 10.4997 0.000157571 9.85155 0 9.19317V2.5345C2.60252e-05 2.38285 0.0517586 2.23573 0.14666 2.11744C0.241561 1.99915 0.373958 1.91675 0.522 1.88384L6 0.666504ZM6 4.6665C5.7065 4.66652 5.4212 4.76337 5.18836 4.94205C4.95551 5.12073 4.78812 5.37124 4.71216 5.65474C4.63619 5.93824 4.65589 6.23889 4.76821 6.51005C4.88052 6.78121 5.07916 7.00774 5.33333 7.1545V9.99984H6.66667L6.66733 7.1545C6.92156 7.00771 7.12023 6.78112 7.23252 6.50989C7.34482 6.23867 7.36447 5.93796 7.28842 5.65442C7.21237 5.37088 7.04487 5.12037 6.81192 4.94174C6.57896 4.76312 6.29356 4.66637 6 4.6665Z" fill="#E0E0E0"/>
</svg>
