<svg width="15" height="15" viewBox="0 0 15 15" fill="none" xmlns="http://www.w3.org/2000/svg">
<path d="M0.332031 14.6667C0.332031 13.2523 0.893934 11.8957 1.89413 10.8955C2.89432 9.89532 4.25088 9.33342 5.66536 9.33342C7.07985 9.33342 8.43641 9.89532 9.4366 10.8955C10.4368 11.8957 10.9987 13.2523 10.9987 14.6667H0.332031ZM5.66536 8.66675C3.45536 8.66675 1.66536 6.87675 1.66536 4.66675C1.66536 2.45675 3.45536 0.666748 5.66536 0.666748C7.87536 0.666748 9.66537 2.45675 9.66537 4.66675C9.66537 6.87675 7.87536 8.66675 5.66536 8.66675ZM10.574 10.1554C11.5938 10.4175 12.5049 10.9946 13.1776 11.8046C13.8503 12.6146 14.2503 13.6162 14.3207 14.6667H12.332C12.332 12.9267 11.6654 11.3427 10.574 10.1554ZM9.22536 8.63808C9.78403 8.1384 10.2308 7.52631 10.5364 6.84191C10.842 6.15752 10.9995 5.41627 10.9987 4.66675C11.0001 3.75572 10.7671 2.85966 10.322 2.06475C11.0771 2.21647 11.7564 2.625 12.2443 3.22088C12.7323 3.81676 12.9988 4.56323 12.9987 5.33342C12.9989 5.80839 12.8975 6.27792 12.7014 6.71053C12.5053 7.14314 12.2191 7.52884 11.8617 7.84178C11.5044 8.15471 11.0843 8.38765 10.6297 8.52499C10.175 8.66233 9.69617 8.70089 9.22536 8.63808Z" fill="#461BC2"/>
</svg>
