<svg width="11" height="12" viewBox="0 0 11 12" fill="none" xmlns="http://www.w3.org/2000/svg">
<path d="M2.79036 3.29158V1.12492C2.79036 0.98126 2.84743 0.843485 2.94902 0.741902C3.0506 0.64032 3.18837 0.583252 3.33203 0.583252H10.3737C10.5174 0.583252 10.6551 0.64032 10.7567 0.741902C10.8583 0.843485 10.9154 0.98126 10.9154 1.12492V8.16658C10.9154 8.31024 10.8583 8.44802 10.7567 8.5496C10.6551 8.65118 10.5174 8.70825 10.3737 8.70825H8.20703V10.8711C8.20703 11.1723 7.96382 11.4166 7.66157 11.4166H0.62749C0.555839 11.4167 0.484878 11.4026 0.418668 11.3752C0.352457 11.3478 0.292298 11.3076 0.241634 11.257C0.190969 11.2063 0.150793 11.1462 0.123407 11.0799C0.0960203 11.0137 0.0819603 10.9428 0.0820315 10.8711L0.0836565 3.83704C0.0836565 3.53588 0.326865 3.29158 0.629115 3.29158H2.79036ZM3.8737 3.29158H7.66157C7.96274 3.29158 8.20703 3.53479 8.20703 3.83704V7.62492H9.83203V1.66659H3.8737V3.29158Z" fill="#E0E0E0"/>
</svg>
