<svg width="26" height="26" viewBox="0 0 26 26" fill="none" xmlns="http://www.w3.org/2000/svg">
<defs>
<linearGradient id="paint0_linear_419_674" x1="12.6" y1="0.800049" x2="12.6" y2="26" gradientUnits="userSpaceOnUse">
<stop stop-color="#A26AFA"/>
<stop offset="1" stop-color="#5108C7"/>
</linearGradient>
</defs>
<path d="M18.3427 2.00005L8.388 11.9547L8.39867 17.6174L14.0493 17.6081L24 7.65738V24.6667C24 25.0203 23.8595 25.3595 23.6095 25.6095C23.3594 25.8596 23.0203 26 22.6667 26H1.33333C0.979711 26 0.640573 25.8596 0.390524 25.6095C0.140476 25.3595 0 25.0203 0 24.6667V3.33338C0 2.97976 0.140476 2.64062 0.390524 2.39057C0.640573 2.14052 0.979711 2.00005 1.33333 2.00005H18.3427ZM23.3133 0.800049L25.2 2.68805L12.944 14.944L11.0613 14.948L11.0587 13.0587L23.3133 0.800049Z" fill="url(#paint0_linear_419_674)"/>
</svg>
