<svg width="25" height="29" viewBox="0 0 25 29" fill="none" xmlns="http://www.w3.org/2000/svg">
<defs>
<linearGradient id="paint0_linear_377_384" x1="12.608" y1="0.333252" x2="12.608" y2="28.6573" gradientUnits="userSpaceOnUse">
<stop stop-color="#A26AFA"/>
<stop offset="1" stop-color="#5108C7"/>
</linearGradient>
</defs>
<path d="M13.6654 18.0026V28.3333H0.332032C0.331618 26.7051 0.703926 25.0985 1.42043 23.6364C2.13693 22.1744 3.17861 20.8958 4.46565 19.8986C5.75269 18.9014 7.25093 18.2121 8.84557 17.8834C10.4402 17.5548 12.0889 17.5955 13.6654 18.0026ZM10.9987 16.3333C6.5787 16.3333 2.9987 12.7533 2.9987 8.33325C2.9987 3.91325 6.5787 0.333252 10.9987 0.333252C15.4187 0.333252 18.9987 3.91325 18.9987 8.33325C18.9987 12.7533 15.4187 16.3333 10.9987 16.3333ZM19.78 21.6666L17.3414 19.2292L19.228 17.3426L24.884 22.9999L19.228 28.6572L17.3414 26.7706L19.78 24.3333H14.9987V21.6666H19.78Z" fill="url(#paint0_linear_377_384)"/>
</svg>
