<svg width="26" height="24" viewBox="0 0 26 24" fill="none" xmlns="http://www.w3.org/2000/svg">
<defs>
<linearGradient id="paint0_linear_419_669" x1="13.0516" y1="0.834717" x2="13.0516" y2="23.9944" gradientUnits="userSpaceOnUse">
<stop stop-color="#A26AFA"/>
<stop offset="1" stop-color="#5108C7"/>
</linearGradient>
</defs>
<path d="M10.7498 11.4214L21.3365 0.834717L24.1645 3.66272L22.2792 5.54805L25.1072 8.37605L20.3938 13.0907L17.5658 10.2627L13.5792 14.2494C14.3132 15.6618 14.518 17.2901 14.1563 18.8403C13.7947 20.3904 12.8906 21.7601 11.6073 22.7019C10.324 23.6437 8.74623 24.0954 7.15899 23.9755C5.57175 23.8556 4.07973 23.1719 2.9525 22.048C1.82471 20.9221 1.13758 19.4293 1.01565 17.8403C0.893708 16.2513 1.34502 14.6712 2.28781 13.3863C3.23059 12.1015 4.60247 11.1968 6.15483 10.8363C7.70719 10.4759 9.33733 10.6834 10.7498 11.4214ZM9.55117 19.2187C9.80586 18.9727 10.009 18.6785 10.1488 18.3531C10.2885 18.0278 10.3621 17.6779 10.3652 17.3238C10.3682 16.9697 10.3008 16.6186 10.1667 16.2908C10.0326 15.9631 9.8346 15.6654 9.58422 15.415C9.33384 15.1646 9.0361 14.9666 8.70838 14.8325C8.38066 14.6984 8.02951 14.631 7.67543 14.634C7.32135 14.6371 6.97143 14.7107 6.64609 14.8504C6.32075 14.9902 6.02649 15.1934 5.7805 15.4481C5.29475 15.951 5.02596 16.6246 5.03204 17.3238C5.03811 18.023 5.31856 18.6918 5.81299 19.1862C6.30741 19.6807 6.97624 19.9611 7.67543 19.9672C8.37462 19.9733 9.04823 19.7045 9.55117 19.2187Z" fill="url(#paint0_linear_419_669)"/>
</svg>
