<svg width="32" height="32" viewBox="0 0 32 32" fill="none" xmlns="http://www.w3.org/2000/svg">
<defs>
<linearGradient id="paint0_linear_208_3972" x1="16" y1="4" x2="16" y2="28" gradientUnits="userSpaceOnUse">
<stop stop-color="#A26AFA"/>
<stop offset="1" stop-color="#5108C7"/>
</linearGradient>
</defs>
<path d="M23.3333 28C22.0957 28 20.9087 27.5083 20.0335 26.6332C19.1583 25.758 18.6667 24.571 18.6667 23.3333C18.6667 22.0957 19.1583 20.9087 20.0335 20.0335C20.9087 19.1583 22.0957 18.6667 23.3333 18.6667C24.571 18.6667 25.758 19.1583 26.6332 20.0335C27.5083 20.9087 28 22.0957 28 23.3333C28 24.571 27.5083 25.758 26.6332 26.6332C25.758 27.5083 24.571 28 23.3333 28ZM8.66667 13.3333C8.05383 13.3333 7.447 13.2126 6.88081 12.9781C6.31462 12.7436 5.80017 12.3998 5.36683 11.9665C4.93349 11.5332 4.58975 11.0187 4.35523 10.4525C4.12071 9.88634 4 9.2795 4 8.66667C4 8.05383 4.12071 7.447 4.35523 6.88081C4.58975 6.31462 4.93349 5.80018 5.36683 5.36684C5.80017 4.9335 6.31462 4.58975 6.88081 4.35523C7.447 4.12071 8.05383 4 8.66667 4C9.90434 4 11.0913 4.49167 11.9665 5.36684C12.8417 6.24201 13.3333 7.42899 13.3333 8.66667C13.3333 9.90434 12.8417 11.0913 11.9665 11.9665C11.0913 12.8417 9.90434 13.3333 8.66667 13.3333ZM25.428 4.68667L27.3133 6.572L6.57333 27.3133L4.688 25.428L25.4267 4.68667H25.428Z" fill="url(#paint0_linear_208_3972)"/>
</svg>
