<svg width="11" height="12" viewBox="0 0 11 12" fill="none" xmlns="http://www.w3.org/2000/svg">
<path d="M5.4987 11.4166C2.50707 11.4166 0.0820312 8.99154 0.0820312 5.99992C0.0820312 3.00829 2.50707 0.583252 5.4987 0.583252C8.49032 0.583252 10.9154 3.00829 10.9154 5.99992C10.9154 8.99154 8.49032 11.4166 5.4987 11.4166ZM8.10953 8.74942C8.76338 8.12968 9.17521 7.29738 9.27123 6.40162C9.36725 5.50586 9.1412 4.60518 8.63356 3.86093C8.12592 3.11669 7.36987 2.5775 6.50086 2.33998C5.63185 2.10245 4.70666 2.18211 3.89103 2.56467L4.41916 3.51529C4.83132 3.33616 5.28159 3.2624 5.72937 3.30068C6.17715 3.33896 6.60837 3.48806 6.98415 3.73456C7.35994 3.98105 7.66848 4.31718 7.88196 4.71265C8.09544 5.10812 8.20715 5.5505 8.20703 5.99992H6.58203L8.10953 8.74942ZM7.10636 9.43517L6.57824 8.48454C6.16607 8.66368 5.7158 8.73743 5.26802 8.69916C4.82024 8.66088 4.38903 8.51177 4.01324 8.26528C3.63746 8.01879 3.32892 7.68266 3.11544 7.28718C2.90195 6.89171 2.79024 6.44933 2.79036 5.99992H4.41536L2.88786 3.25042C2.23401 3.87016 1.82219 4.70246 1.72617 5.59822C1.63014 6.49397 1.8562 7.39465 2.36384 8.1389C2.87147 8.88315 3.62752 9.42233 4.49653 9.65986C5.36554 9.89738 6.29074 9.81773 7.10636 9.43517Z" fill="#E0E0E0"/>
</svg>
