<svg width="11" height="12" viewBox="0 0 11 12" fill="none" xmlns="http://www.w3.org/2000/svg">
<path d="M0.154902 6.88283C0.0577411 6.29823 0.0577411 5.7016 0.154902 5.117C0.751818 5.13108 1.28807 4.84508 1.49661 4.34187C1.70515 3.83812 1.52803 3.25637 1.09578 2.84525C1.4405 2.36278 1.86254 1.94056 2.34486 1.59562C2.75653 2.02787 3.33828 2.205 3.84203 1.99646C4.34578 1.78791 4.63124 1.25112 4.61661 0.654748C5.20157 0.557467 5.79857 0.557467 6.38353 0.654748C6.3689 1.25166 6.6549 1.78791 7.15811 1.99646C7.66186 2.205 8.24361 2.02787 8.65473 1.59562C9.1372 1.94035 9.55943 2.36239 9.90436 2.84471C9.47211 3.25637 9.29499 3.83812 9.50353 4.34187C9.71207 4.84562 10.2489 5.13108 10.8452 5.11646C10.9425 5.70141 10.9425 6.29842 10.8452 6.88337C10.2483 6.86875 9.71207 7.15475 9.50353 7.65796C9.29499 8.16171 9.47211 8.74346 9.90436 9.15458C9.55964 9.63705 9.1376 10.0593 8.65528 10.4042C8.24361 9.97196 7.66186 9.79483 7.15811 10.0034C6.65436 10.2119 6.3689 10.7487 6.38353 11.3451C5.79857 11.4424 5.20157 11.4424 4.61661 11.3451C4.63124 10.7482 4.34524 10.2119 3.84203 10.0034C3.33828 9.79483 2.75653 9.97196 2.3454 10.4042C1.86293 10.0595 1.44071 9.63744 1.09578 9.15512C1.52803 8.74346 1.70515 8.16171 1.49661 7.65796C1.28807 7.15421 0.751277 6.86875 0.154902 6.88337V6.88283ZM5.50007 7.62491C5.93105 7.62491 6.34437 7.45371 6.64912 7.14896C6.95386 6.84422 7.12507 6.43089 7.12507 5.99991C7.12507 5.56894 6.95386 5.15561 6.64912 4.85087C6.34437 4.54612 5.93105 4.37491 5.50007 4.37491C5.06909 4.37491 4.65577 4.54612 4.35102 4.85087C4.04627 5.15561 3.87507 5.56894 3.87507 5.99991C3.87507 6.43089 4.04627 6.84422 4.35102 7.14896C4.65577 7.45371 5.06909 7.62491 5.50007 7.62491Z" fill="#E0E0E0"/>
</svg>
