<svg width="32" height="32" viewBox="0 0 32 32" fill="none" xmlns="http://www.w3.org/2000/svg">
<defs>
<linearGradient id="paint0_linear_208_3971" x1="16.668" y1="4" x2="16.668" y2="28" gradientUnits="userSpaceOnUse">
<stop stop-color="#A26AFA"/>
<stop offset="1" stop-color="#5108C7"/>
</linearGradient>
</defs>
<path d="M29.3346 8H20.0013C17.8796 8 15.8447 8.84285 14.3444 10.3431C12.8442 11.8434 12.0013 13.8783 12.0013 16C12.0013 18.1217 12.8442 20.1566 14.3444 21.6569C15.8447 23.1571 17.8796 24 20.0013 24H29.3346V26.6667C29.3346 27.0203 29.1942 27.3594 28.9441 27.6095C28.6941 27.8595 28.3549 28 28.0013 28H4.0013C3.64768 28 3.30854 27.8595 3.05849 27.6095C2.80844 27.3594 2.66797 27.0203 2.66797 26.6667V5.33333C2.66797 4.97971 2.80844 4.64057 3.05849 4.39052C3.30854 4.14048 3.64768 4 4.0013 4H28.0013C28.3549 4 28.6941 4.14048 28.9441 4.39052C29.1942 4.64057 29.3346 4.97971 29.3346 5.33333V8ZM20.0013 10.6667H30.668V21.3333H20.0013C18.5868 21.3333 17.2303 20.7714 16.2301 19.7712C15.2299 18.771 14.668 17.4145 14.668 16C14.668 14.5855 15.2299 13.229 16.2301 12.2288C17.2303 11.2286 18.5868 10.6667 20.0013 10.6667ZM20.0013 14.6667V17.3333H24.0013V14.6667H20.0013Z" fill="url(#paint0_linear_208_3971)"/>
</svg>
