<svg width="32" height="32" viewBox="0 0 32 32" fill="none" xmlns="http://www.w3.org/2000/svg">
<defs>
<linearGradient id="paint0_linear_208_3969" x1="16.0013" y1="4" x2="16.0013" y2="28" gradientUnits="userSpaceOnUse">
<stop stop-color="#A26AFA"/>
<stop offset="1" stop-color="#5108C7"/>
</linearGradient>
</defs>
<path d="M2.66797 12H28.0013C28.3549 12 28.6941 12.1405 28.9441 12.3905C29.1942 12.6406 29.3346 12.9797 29.3346 13.3333V26.6667C29.3346 27.0203 29.1942 27.3594 28.9441 27.6095C28.6941 27.8595 28.3549 28 28.0013 28H4.0013C3.64768 28 3.30854 27.8595 3.05849 27.6095C2.80844 27.3594 2.66797 27.0203 2.66797 26.6667V12ZM4.0013 4H24.0013V9.33333H2.66797V5.33333C2.66797 4.97971 2.80844 4.64057 3.05849 4.39052C3.30854 4.14048 3.64768 4 4.0013 4ZM20.0013 18.6667V21.3333H24.0013V18.6667H20.0013Z" fill="url(#paint0_linear_208_3969)"/>
</svg>
