<svg width="14" height="14" viewBox="0 0 14 14" fill="none" xmlns="http://www.w3.org/2000/svg">
<path d="M9.15029 9.3386L7.67496 12.4386C7.64705 12.4972 7.60529 12.5482 7.55329 12.587C7.50129 12.6259 7.44061 12.6515 7.37649 12.6617C7.31237 12.6719 7.24674 12.6663 7.18526 12.6454C7.12378 12.6245 7.06831 12.589 7.02363 12.5419L4.66229 10.0493C4.59921 9.98275 4.51519 9.93991 4.42429 9.92794L1.01963 9.4826C0.9553 9.47413 0.894002 9.45013 0.841017 9.41269C0.788032 9.37524 0.744951 9.32547 0.71549 9.26766C0.686029 9.20986 0.671072 9.14575 0.671908 9.08087C0.672745 9.016 0.68935 8.9523 0.720292 8.89527L2.36163 5.87927C2.40526 5.79861 2.41985 5.70541 2.40296 5.61527L1.77429 2.23994C1.76235 2.17605 1.76616 2.11021 1.78539 2.04813C1.80462 1.98605 1.83869 1.92958 1.88464 1.88362C1.9306 1.83767 1.98707 1.8036 2.04915 1.78437C2.11124 1.76514 2.17707 1.76133 2.24096 1.77327L5.61629 2.40194C5.70643 2.41883 5.79963 2.40424 5.88029 2.3606L8.89629 0.719272C8.95337 0.688321 9.01712 0.671729 9.08204 0.670929C9.14696 0.670128 9.2111 0.685144 9.26892 0.714677C9.32674 0.744211 9.37651 0.787376 9.41391 0.840444C9.45132 0.893512 9.47525 0.954888 9.48363 1.01927L9.92896 4.42327C9.94093 4.51417 9.98377 4.59819 10.0503 4.66127L12.543 7.0226C12.5901 7.06729 12.6256 7.12276 12.6464 7.18424C12.6673 7.24572 12.6729 7.31135 12.6627 7.37547C12.6525 7.43959 12.6269 7.50027 12.588 7.55227C12.5492 7.60427 12.4982 7.64603 12.4396 7.67394L9.33963 9.14927C9.25664 9.18876 9.18978 9.25562 9.15029 9.3386ZM9.68163 10.6233L10.6243 9.6806L13.453 12.5086L12.5096 13.4519L9.68163 10.6233Z" fill="#461BC2"/>
</svg>
